<?xml version="1.0" standalone="no"?>
<!DOCTYPE svg PUBLIC "-//W3C//DTD SVG 20010904//EN"
 "http://www.w3.org/TR/2001/REC-SVG-20010904/DTD/svg10.dtd">
<svg version="1.0" xmlns="http://www.w3.org/2000/svg"
 width="600.000000pt" height="600.000000pt" viewBox="0 0 600.000000 600.000000"
 preserveAspectRatio="xMidYMid meet">
<metadata>
Created by potrace 1.14, written by Peter Selinger 2001-2017
</metadata>
<g transform="translate(0.000000,600.000000) scale(0.100000,-0.100000)"
fill="#000000" stroke="none">
<path d="M1606 5984 c-32 -32 -19 -53 74 -114 89 -60 168 -137 189 -186 17
-38 63 -74 95 -74 19 0 153 -67 201 -100 25 -17 61 -55 80 -85 62 -97 135
-149 226 -161 120 -14 208 -62 314 -169 50 -50 108 -99 130 -109 22 -10 69
-32 105 -48 146 -66 204 -106 252 -172 l29 -41 -40 -38 -41 -37 -34 37 c-81
91 -289 156 -461 146 -88 -5 -123 14 -160 86 -60 120 -140 171 -267 171 -42 0
-87 4 -100 9 -13 5 -51 36 -86 69 -91 87 -133 103 -287 104 -75 1 -112 19
-190 93 -70 66 -175 137 -225 152 -19 5 -64 11 -99 12 -70 2 -91 11 -192 78
-71 47 -102 51 -114 13 -10 -30 3 -44 103 -110 86 -57 98 -62 157 -66 56 -3
79 -6 130 -17 36 -8 117 -67 205 -150 73 -69 120 -89 214 -93 161 -6 156 -4
256 -97 77 -72 95 -80 197 -82 60 -2 93 -8 126 -24 38 -19 81 -61 82 -82 1
-24 67 -105 104 -127 40 -23 55 -26 160 -27 175 -3 331 -53 389 -125 l22 -29
-25 -27 -25 -27 -30 28 c-17 16 -30 25 -30 19 0 -5 -4 -5 -8 1 -10 15 -80 48
-105 51 -49 6 -219 14 -320 14 -105 1 -108 2 -142 32 -19 16 -35 35 -35 42 0
19 -62 74 -104 91 -23 10 -63 16 -100 15 -33 -1 -146 -2 -251 -3 -215 -2 -233
2 -313 75 -87 80 -169 100 -341 84 -40 -4 -91 -4 -112 -1 -38 7 -79 34 -79 53
0 6 -20 28 -45 50 -53 47 -123 70 -222 75 -79 4 -113 -9 -113 -42 0 -33 28
-44 111 -47 88 -3 153 -27 179 -66 8 -13 31 -39 50 -59 45 -46 116 -63 222
-53 40 3 86 8 101 9 36 3 121 -19 150 -39 12 -8 38 -28 57 -45 19 -18 60 -44
90 -59 55 -27 57 -27 245 -25 105 1 219 3 255 4 63 3 130 -18 130 -40 0 -4 16
-29 35 -54 52 -68 80 -79 215 -82 214 -6 321 -15 358 -30 65 -28 67 -32 66
-149 -2 -105 7 -150 42 -218 31 -60 161 -167 255 -211 48 -22 146 -47 185 -47
27 0 50 -19 170 -142 205 -209 315 -354 411 -539 50 -96 98 -212 115 -278 5
-20 14 -54 20 -76 6 -22 12 -49 13 -60 2 -11 4 -22 5 -25 3 -6 4 -12 14 -80 4
-30 10 -68 13 -85 12 -68 14 -126 16 -481 2 -203 7 -375 11 -382 10 -17 62
-15 80 3 8 8 17 15 21 15 3 0 30 15 58 33 103 66 100 66 94 10 -9 -88 -34
-172 -73 -240 -42 -76 -89 -146 -120 -179 -76 -82 -190 -207 -194 -214 -5 -7
-164 -141 -250 -210 -24 -19 -49 -41 -56 -48 -7 -6 -17 -12 -22 -12 -6 0 -12
-4 -14 -8 -3 -9 -118 -87 -167 -114 -31 -17 -51 -52 -51 -90 0 -33 69 -116
107 -129 83 -27 172 -5 218 55 37 49 32 109 -15 168 -19 23 -28 43 -23 47 45
28 339 279 372 317 18 22 69 78 112 125 177 193 268 388 264 567 -2 65 1 74
19 84 12 6 33 20 47 32 15 12 39 30 55 41 87 62 203 164 278 244 60 64 58 62
101 116 49 61 62 75 70 75 5 0 59 -111 80 -165 4 -11 15 -55 24 -98 42 -195
-8 -436 -117 -562 -33 -39 -87 -73 -172 -110 -47 -20 -104 -45 -127 -56 -24
-10 -45 -19 -47 -19 -2 0 -30 -12 -62 -27 -33 -15 -61 -27 -64 -28 -110 -31
-124 -176 -24 -251 22 -16 41 -31 44 -35 3 -3 28 -6 55 -8 65 -3 98 21 113 82
13 50 2 105 -30 150 l-19 27 48 21 c26 11 92 39 145 61 54 22 103 46 109 54 6
8 16 14 21 14 22 0 119 112 148 170 81 161 105 393 59 575 -20 80 -71 196
-118 270 -12 18 -6 31 45 115 80 132 253 478 260 520 0 3 6 18 13 34 19 46 11
59 -57 93 -186 96 -333 185 -445 269 -31 24 -61 44 -66 44 -5 0 -11 3 -13 8
-1 4 -59 45 -128 91 -69 47 -126 89 -128 93 -2 4 -10 8 -18 8 -8 0 -14 5 -14
10 0 6 -6 10 -14 10 -8 0 -16 3 -18 8 -1 4 -25 25 -53 47 -27 22 -55 45 -61
50 -13 11 -105 90 -148 127 l-28 24 73 33 c41 19 90 40 109 48 58 24 100 43
215 100 105 52 142 72 298 156 l68 37 15 -35 c8 -19 14 -39 14 -45 0 -5 18
-28 40 -50 44 -44 79 -51 130 -25 50 26 69 63 65 130 -5 109 -52 195 -104 195
-15 0 -60 -18 -101 -39 -136 -72 -224 -119 -310 -165 -118 -64 -288 -147 -392
-190 -48 -19 -111 -47 -140 -61 -62 -30 -78 -31 -109 -6 -13 10 -35 22 -47 26
-19 5 -23 12 -17 32 3 14 10 30 16 36 15 18 171 270 177 287 3 8 13 26 23 40
18 27 142 272 178 353 26 57 57 130 77 177 9 19 19 44 24 55 5 11 29 74 54
140 l44 120 45 -3 c58 -5 84 10 107 60 37 84 -10 178 -90 180 -33 1 -78 -25
-87 -50 -3 -9 -12 -32 -20 -51 -8 -18 -16 -39 -18 -45 -1 -6 -5 -18 -8 -26 -3
-8 -28 -76 -56 -150 -113 -306 -282 -657 -418 -868 -29 -45 -53 -85 -53 -87 0
-2 -11 -20 -24 -39 l-23 -35 2 90 c4 151 -23 220 -123 308 -102 91 -235 141
-385 147 -57 2 -101 -2 -127 -11 -22 -8 -40 -12 -40 -10 0 3 -21 -7 -47 -22
l-47 -26 -21 28 c-11 16 -42 51 -70 78 -47 46 -92 71 -317 177 -26 12 -67 42
-90 68 -78 84 -108 112 -146 135 -57 36 -164 75 -233 86 -77 13 -131 47 -169
109 -43 70 -60 89 -115 125 -43 29 -180 100 -195 102 -30 3 -70 32 -81 58 -14
37 -110 130 -189 184 -30 21 -57 41 -60 44 -8 9 -48 29 -59 29 -5 0 -17 -7
-25 -16z m3257 -443 c6 -25 -7 -45 -26 -38 -13 5 -14 11 -4 36 12 32 22 33 30
2z m448 -1048 c6 -16 13 -49 14 -75 3 -40 0 -48 -17 -54 -28 -9 -57 38 -69
111 -1 7 41 40 59 44 1 1 7 -11 13 -26z m-531 -3203 c28 -28 39 -60 33 -93 -6
-33 -6 -32 -54 -5 -51 28 -67 74 -35 100 27 22 32 22 56 -2z m-955 -537 c48
-53 23 -96 -58 -96 -38 0 -71 22 -79 50 -3 12 77 71 99 72 7 1 24 -11 38 -26z"/>
<path d="M2408 4019 c-163 -64 -267 -203 -303 -404 -11 -66 -16 -90 -19 -93
-2 -1 -16 -5 -32 -8 -16 -2 -54 -10 -84 -16 -30 -6 -61 -13 -68 -14 -19 -3
-21 -7 -31 -42 -8 -26 -1 -43 55 -143 35 -62 64 -114 64 -115 0 -3 96 -172
110 -194 5 -8 19 -35 32 -60 12 -25 33 -62 45 -82 13 -21 22 -39 21 -39 -2 -1
-19 -3 -38 -5 -49 -4 -159 -15 -195 -18 -120 -13 -215 -17 -216 -10 0 5 -2 18
-5 29 -2 11 -6 39 -9 61 -3 23 -8 53 -10 65 -3 13 -10 51 -15 84 -20 111 -21
116 -46 125 -25 10 -49 2 -203 -72 l-84 -40 -36 39 c-58 62 -112 99 -197 136
-137 60 -264 98 -371 111 -83 10 -93 15 -81 41 19 41 1 129 -33 164 -16 17
-37 31 -47 32 -9 0 -25 2 -35 4 -29 6 -80 -16 -106 -44 -51 -56 -64 -126 -35
-188 23 -47 47 -60 124 -68 36 -4 74 -9 85 -11 11 -3 40 -7 65 -10 111 -12
212 -37 320 -79 133 -51 150 -61 233 -136 l40 -36 -54 -33 c-30 -18 -56 -32
-59 -31 -3 1 -8 -8 -11 -21 -4 -16 5 -39 32 -78 31 -47 49 -71 107 -145 4 -5
25 -34 46 -63 21 -30 55 -72 75 -94 20 -22 36 -45 36 -50 0 -6 -18 -17 -39
-25 -42 -14 -72 -37 -87 -65 -12 -22 8 -71 46 -113 49 -55 200 -289 253 -391
51 -101 137 -302 144 -337 3 -16 -5 -19 -55 -22 -50 -4 -97 -11 -195 -31 -39
-8 -205 -65 -252 -86 -55 -25 -82 -35 -94 -36 -5 0 -12 -4 -15 -9 -3 -4 -37
-24 -76 -43 -38 -19 -74 -38 -80 -43 -5 -4 -52 -32 -104 -63 -112 -67 -148
-98 -212 -184 -27 -36 -53 -70 -59 -77 -5 -7 -10 -15 -10 -18 0 -4 -11 -21
-24 -38 -13 -18 -40 -64 -59 -102 -44 -88 -44 -143 -1 -204 47 -64 89 -77 171
-50 55 18 80 106 48 169 -15 30 -74 80 -93 80 -6 0 -13 4 -16 8 -6 10 101 169
149 224 37 42 121 105 165 125 8 4 17 9 20 12 16 19 268 146 365 184 152 60
245 82 390 92 l70 6 -50 -23 c-106 -49 -150 -87 -185 -163 -45 -96 -56 -186
-39 -315 15 -113 28 -168 48 -204 16 -30 21 -37 85 -114 20 -24 36 -47 36 -50
0 -4 -23 -32 -51 -62 -27 -30 -57 -68 -65 -83 -14 -26 -14 -30 2 -48 28 -31
49 -22 110 48 33 38 69 79 81 93 13 14 23 28 23 32 0 9 34 11 42 2 4 -3 -12
-42 -34 -86 -43 -87 -44 -121 -6 -131 12 -4 28 -1 36 5 15 13 92 168 92 186 0
7 11 7 36 -1 35 -11 35 -11 15 -26 -11 -9 -20 -25 -20 -36 1 -11 -1 -55 -4
-97 -6 -80 4 -108 38 -108 19 0 45 28 45 48 0 9 3 52 6 95 5 57 3 82 -7 94
-13 15 -11 16 21 9 19 -4 43 -9 53 -12 92 -23 91 -22 102 -23 6 -1 17 -18 24
-38 13 -38 110 -177 139 -201 25 -19 51 -14 64 13 9 21 7 31 -18 67 -16 24
-31 45 -34 48 -3 3 -17 21 -32 41 l-27 37 95 57 c104 62 138 102 170 197 31
94 13 366 -31 472 -8 19 -15 38 -15 41 0 7 103 -63 142 -97 74 -63 190 -260
286 -488 53 -126 142 -409 142 -451 0 -52 19 -109 45 -135 33 -32 132 -34 175
-4 30 21 60 71 56 92 -11 60 -56 89 -176 112 -10 1 -37 69 -80 197 -133 396
-302 700 -430 776 -17 9 -30 21 -30 25 0 4 -6 8 -14 8 -8 0 -16 3 -18 8 -5 11
-66 52 -78 52 -5 0 -10 5 -10 10 0 6 -7 10 -15 10 -20 0 -19 23 6 122 11 46
22 92 23 103 2 18 18 102 21 115 1 3 5 28 10 55 4 28 9 59 11 70 10 54 22 140
30 215 1 19 6 60 10 90 3 30 8 69 9 85 25 256 26 322 2 359 -19 29 -32 92 -42
203 -6 78 -11 122 -21 193 -9 67 -12 80 -24 140 -6 30 -13 66 -15 80 -2 14 -5
39 -8 55 -3 17 -8 53 -12 80 -3 28 -8 64 -10 80 -2 17 -7 61 -10 99 -3 39 -11
76 -18 84 -9 12 -37 13 -152 8 -77 -4 -151 -8 -165 -9 -23 -2 -25 1 -22 33 4
43 31 141 43 156 5 6 7 13 5 15 -2 2 15 31 38 64 45 65 117 119 181 136 46 13
118 7 140 -11 13 -11 9 -19 -30 -61 -54 -57 -59 -90 -28 -156 23 -50 99 -71
147 -40 82 54 87 183 10 284 -56 74 -186 102 -286 62z m254 -207 c8 -29 -9
-62 -32 -62 -25 0 -27 32 -3 60 21 25 29 25 35 2z m-2062 -361 c13 -25 13 -67
0 -91 -10 -19 -54 -21 -80 -5 -19 12 -11 65 15 90 29 30 51 32 65 6z m77
-2769 c34 -27 35 -67 2 -75 -27 -7 -69 36 -69 69 0 29 34 32 67 6z m2623 -566
c8 -3 17 -5 20 -6 3 0 -3 -7 -13 -14 -27 -21 -76 -3 -77 28 0 7 21 5 70 -8z"/>
<path d="M2134 435 c-3 -14 -4 -40 0 -58 3 -17 8 -50 12 -72 13 -92 66 -144
99 -99 10 15 10 26 0 64 -8 25 -17 71 -21 103 -7 64 -23 87 -60 87 -17 0 -25
-7 -30 -25z"/>
</g>
</svg>
